<svg width="48" height="48" viewBox="0 0 48 48" fill="none" xmlns="http://www.w3.org/2000/svg">
<path d="M39.33 30.67L37.73 29.47C37.73 29.47 37.07 23.12 35.91 21.89C33.82 19.69 32.49 16.47 31.61 13.43C31.06 11.55 30.67 10.88 28.98 10.85C28.6409 10.8824 28.3117 10.9819 28.0114 11.1427C27.7111 11.3035 27.4457 11.5224 27.2308 11.7867C27.0158 12.0509 26.8556 12.3553 26.7593 12.682C26.663 13.0088 26.6327 13.3514 26.67 13.69C26.6966 14.5438 26.7734 15.3953 26.9 16.24C27.3503 18.4804 28.0202 20.671 28.9 22.78L28.25 22.39L12.81 10.65C11.66 9.78001 10 9.39001 8.88002 10.89C7.76002 12.39 8.66002 13.78 9.81002 14.64L17.81 20.64L20.2 22.45L7.41002 12.84C6.26002 11.97 4.60002 11.58 3.47002 13.08C2.34002 14.58 3.26002 16 4.40002 16.83L12.4 22.83L17.2 26.43L6.80002 18.64C5.65002 17.77 3.99002 17.38 2.86002 18.88C1.73002 20.38 2.65002 21.77 3.80002 22.63L11.8 28.63L15.8 31.63L7.80002 25.63C6.65002 24.76 5.02002 24.34 3.94002 25.77C2.86002 27.2 3.65002 28.77 4.80002 29.63L19.34 40.63C20.3914 41.4115 21.5892 41.9736 22.8622 42.2828C24.1351 42.592 25.4573 42.6421 26.75 42.43C27.56 43.02 29.15 44.23 29.15 44.23C31.2883 42.582 33.1719 40.6276 34.74 38.43C36.5506 36.0199 38.0899 33.4175 39.33 30.67V30.67Z" fill="#49992A"/>
<path d="M29.73 23.48L27.32 21.67Z" fill="#93D870"/>
<path d="M39.21 31L39.33 30.72" stroke="#43722B" stroke-width="2" stroke-linecap="round" stroke-linejoin="round"/>
<path d="M37.6 28.4C37.35 26.53 37.19 20.93 36.33 20.02C34.24 17.81 32.49 16.47 31.61 13.43C31.06 11.55 30.67 10.88 28.98 10.85C28.6409 10.8824 28.3117 10.9819 28.0114 11.1427C27.7111 11.3035 27.4457 11.5224 27.2308 11.7867C27.0158 12.0509 26.8556 12.3553 26.7593 12.682C26.663 13.0088 26.6327 13.3514 26.67 13.69C26.6966 14.5438 26.7734 15.3953 26.9 16.24C27.3755 18.5977 28.0444 20.9122 28.9 23.16L12.81 11C11.66 10.14 10 9.75 8.88002 11.25C7.76002 12.75 8.66002 14.13 9.81002 15L17.81 21L20.2 22.8L7.41002 13.21C6.26002 12.35 4.60002 11.96 3.47002 13.46C2.34002 14.96 3.26002 16.34 4.40002 17.21L12.4 23.21L17.2 26.82L6.80002 19C5.65002 18.14 3.99002 17.75 2.86002 19.25C1.73002 20.75 2.65002 22.14 3.80002 23L11.8 29L15.8 32L7.80002 26C6.65002 25.14 5.02002 24.71 3.94002 26.15C2.86002 27.59 3.65002 29.15 4.80002 30L19.33 40.68C20.3814 41.4615 21.5792 42.0236 22.8522 42.3328C24.1251 42.642 25.4473 42.6921 26.74 42.48" stroke="#165209" stroke-width="2" stroke-linecap="round" stroke-linejoin="round"/>
<path d="M29.73 23.48L27.32 21.67" stroke="#43722B" stroke-width="2" stroke-linecap="round" stroke-linejoin="round"/>
<path d="M45.93 31.87L44.33 30.67C44.33 30.67 43.67 24.31 42.51 23.09C40.4499 20.6351 38.979 17.7412 38.21 14.63C37.66 12.75 37.27 12.08 35.58 12.05C35.2413 12.0812 34.9123 12.1795 34.6121 12.3392C34.3118 12.499 34.0464 12.717 33.8314 12.9804C33.6163 13.2439 33.4559 13.5476 33.3595 13.8737C33.2631 14.1999 33.2327 14.542 33.27 14.88C33.2966 15.7338 33.3734 16.5853 33.5 17.43C34.13 20.73 34.81 23.43 34.89 23.59L19.65 12.19C18.5 11.32 16.84 10.93 15.71 12.43C14.58 13.93 15.49 15.32 16.64 16.18L24.64 22.18L27 24L14.24 14.38C13.09 13.52 11.43 13.13 10.31 14.63C9.19001 16.13 10.09 17.51 11.24 18.38L19.24 24.38L24 28L13.64 20.18C12.49 19.31 10.82 18.93 9.70001 20.42C8.58001 21.91 9.48001 23.31 10.63 24.18L18.63 30.18L22.63 33.18L14.63 27.18C13.48 26.32 11.84 25.89 10.76 27.33C9.68001 28.77 10.47 30.33 11.62 31.18L25.93 41.88C28.46 43.75 33 44 32.93 44C33.8291 44.5587 34.7684 45.05 35.74 45.47C38.6224 44.9601 41.1974 43.3592 42.93 41C44.7873 38.3085 45.8289 35.1385 45.93 31.87V31.87Z" fill="#6DAE4F"/>
<path d="M36.33 24.67L33.92 22.87Z" fill="#93D870"/>
<path d="M12 1.65L12.79 5.17L12 1.65ZM23.2 6L20.26 8L23.2 6ZM18.68 1L16.53 6.6L18.68 1ZM45.77 31.88C45.0498 31.1165 44.4979 30.2103 44.15 29.22C43.97 28.47 43.92 27.69 43.78 26.93C43.56 25.76 43.37 24 42.51 23.09C40.4499 20.6351 38.979 17.7412 38.21 14.63C37.66 12.75 37.27 12.08 35.58 12.05C35.2413 12.0812 34.9123 12.1795 34.6121 12.3392C34.3118 12.499 34.0464 12.717 33.8314 12.9804C33.6163 13.2439 33.4559 13.5476 33.3595 13.8737C33.2631 14.1999 33.2327 14.542 33.27 14.88C33.2966 15.7338 33.3734 16.5853 33.5 17.43C34.13 20.73 34.81 23.43 34.89 23.59L19.65 12.19C18.5 11.32 16.84 10.93 15.71 12.43C14.58 13.93 15.49 15.32 16.64 16.18L24.64 22.18L27 24L14.24 14.38C13.09 13.52 11.43 13.13 10.31 14.63C9.19001 16.13 10.09 17.51 11.24 18.38L19.24 24.38L24 28L13.64 20.18C12.49 19.31 10.82 18.93 9.70001 20.42C8.58001 21.91 9.48001 23.31 10.63 24.18L18.63 30.18L22.63 33.18L14.63 27.18C13.48 26.32 11.84 25.89 10.76 27.33C9.68001 28.77 10.47 30.33 11.62 31.18L25.93 41.88C27.1121 42.7613 28.4805 43.3599 29.93 43.63C30.57 43.75 31.25 43.81 32 43.95C33.0745 44.1126 34.115 44.4504 35.08 44.95C35.7508 45.2712 36.517 45.3318 37.23 45.12C39.7287 44.2503 41.9092 42.6515 43.49 40.53C44.993 38.4944 45.8562 36.0577 45.97 33.53C46.0646 32.9722 45.9951 32.399 45.77 31.88V31.88Z" stroke="#165209" stroke-width="2" stroke-linecap="round" stroke-linejoin="round"/>
</svg>
