<svg width="48" height="48" viewBox="0 0 48 48" fill="none" xmlns="http://www.w3.org/2000/svg">
<path d="M27 44H21C20.4696 44 19.9609 43.7893 19.5858 43.4142C19.2107 43.0391 19 42.5304 19 42V37H29V42C29 42.5304 28.7893 43.0391 28.4142 43.4142C28.0391 43.7893 27.5304 44 27 44Z" fill="#C07800"/>
<path d="M21 37L29 37.07C28.8397 35.8828 28.8701 34.6776 29.09 33.5C29.2742 32.9235 29.5366 32.3751 29.87 31.87C30.0587 31.6214 30.2696 31.3905 30.5 31.18L30.64 31.06C31.9699 29.9848 33.0491 28.6322 33.8022 27.0967C34.5552 25.5612 34.964 23.8798 35 22.17C35 19.2526 33.8411 16.4547 31.7782 14.3918C29.7153 12.3289 26.9174 11.17 24 11.17C21.0826 11.17 18.2847 12.3289 16.2218 14.3918C14.1589 16.4547 13 19.2526 13 22.17V22.23C13.0197 23.8865 13.3992 25.519 14.1124 27.0143C14.8255 28.5096 15.8551 29.8321 17.13 30.89C17.8605 31.723 18.4576 32.6642 18.9 33.68C19.3385 34.6542 19.609 35.6956 19.7 36.76L20 37" fill="#F5BB5C"/>
<path d="M24 2V6.77M12 5.82L14.42 9L12 5.82ZM36 5.82L33.58 9L36 5.82Z" stroke="#5D3B01" stroke-width="1.91" stroke-linecap="round" stroke-linejoin="round"/>
<path d="M27 44H21C20.4695 43.9499 19.9749 43.7098 19.6074 43.3239C19.2399 42.938 19.0242 42.4323 19 41.9V37H29V41.9C28.9758 42.4323 28.7601 42.938 28.3926 43.3239C28.0251 43.7098 27.5305 43.9499 27 44V44Z" stroke="#5D3B01" stroke-width="2" stroke-linecap="round" stroke-linejoin="round"/>
<path d="M29 38C29 34.37 29.41 33.53 29.41 33.53C29.7418 32.3706 30.3975 31.3299 31.3 30.53C31.7598 30.1019 32.1877 29.6407 32.58 29.15C33.3496 28.1717 33.9604 27.0783 34.39 25.91C34.81 24.7211 35.0296 23.4708 35.04 22.21V22.15C35.0533 19.2078 33.8979 16.3807 31.8278 14.29C29.7577 12.1992 26.9422 11.0159 24 11V11C21.0605 11.0238 18.2506 12.2137 16.188 14.3082C14.1253 16.4027 12.9787 19.2304 13 22.17V22.23C13.0104 23.4908 13.23 24.7411 13.65 25.93C14.0796 27.0983 14.6904 28.1917 15.46 29.17C15.8523 29.6607 16.2801 30.1219 16.74 30.55C17.6425 31.3499 18.2981 32.3906 18.63 33.55C18.63 33.55 19 34.39 19 38" stroke="#5D3B01" stroke-width="2" stroke-linecap="round" stroke-linejoin="round"/>
</svg>
