<svg width="48" height="48" viewBox="0 0 48 48" fill="none" xmlns="http://www.w3.org/2000/svg">
<path d="M25.39 22H10.13C8.12999 22 6.92999 24.11 7.00999 25.92C7.06889 26.7484 7.44461 27.5223 8.05912 28.081C8.67364 28.6396 9.47974 28.9401 10.31 28.92H10.88C10.5162 28.9277 10.1576 29.0076 9.82495 29.1549C9.49228 29.3022 9.19214 29.5141 8.94194 29.7783C8.69174 30.0424 8.49644 30.3536 8.36737 30.6938C8.23829 31.034 8.178 31.3964 8.18999 31.76C8.19036 32.4749 8.46032 33.1633 8.94597 33.6879C9.43163 34.2125 10.0973 34.5346 10.81 34.59C10.3848 34.9233 10.0639 35.3714 9.88526 35.8812C9.70659 36.3911 9.67758 36.9414 9.80167 37.4672C9.92576 37.993 10.1978 38.4723 10.5855 38.8485C10.9733 39.2246 11.4607 39.4819 11.99 39.59C11.6566 40.2003 11.5537 40.9101 11.7 41.59C11.872 42.2482 12.2626 42.8284 12.8077 43.2354C13.3528 43.6424 14.02 43.8521 14.7 43.83H22.88C23.9495 43.8236 25.0141 43.6859 26.05 43.42L31.18 41.92C31.48 41.83 35.92 41.92 37.92 41.92C41.49 41.78 42.45 25.4 37.92 25.4C37.92 25.4 36.27 25.46 35.92 25.4C35.76 25.4 35.4 24.72 34.51 23.76L34.43 23.66C33.13 22.25 31.65 20.43 30.61 19.4C28.08 16.92 25.98 14.79 24.52 11.56C23.8 9.83 23.71 9 22 9C21.3118 9.09672 20.6852 9.44857 20.2443 9.98575C19.8035 10.5229 19.5806 11.2062 19.62 11.9C19.6961 12.8561 19.8229 13.8074 20 14.75C20.63 18.13 23.43 21.83 23.51 22" fill="#378FE9"/>
<path d="M23.49 23H10.13C8.13001 23 6.92001 24.19 7.00001 26C7.05655 26.8311 7.43295 27.6079 8.05017 28.1673C8.66739 28.7268 9.47739 29.0252 10.31 29H10.88C10.147 29.0209 9.45228 29.3316 8.94802 29.864C8.44377 30.3964 8.17118 31.107 8.19001 31.84C8.19038 32.5549 8.46034 33.2433 8.946 33.7679C9.43165 34.2925 10.0973 34.6146 10.81 34.67V34.67C10.3848 35.0033 10.064 35.4514 9.88528 35.9612C9.70661 36.4711 9.6776 37.0214 9.80169 37.5472C9.92578 38.073 10.1978 38.5523 10.5856 38.9285C10.9733 39.3046 11.4607 39.5619 11.99 39.67C11.6567 40.2803 11.5537 40.9901 11.7 41.67C11.872 42.3282 12.2626 42.9084 12.8077 43.3154C13.3528 43.7224 14.0201 43.9321 14.7 43.91H22.88C23.9495 43.9036 25.0141 43.7659 26.05 43.5L31.18 42C31.48 41.91 35.92 42 37.92 42C41.49 41.86 42.45 25.48 37.92 25.48C37.92 25.48 36.27 25.54 35.92 25.48C35.76 25.48 35.4 24.8 34.51 23.84L34.43 23.74C33.13 22.33 31.65 20.51 30.61 19.48C28.08 17 25.98 14.88 24.52 11.64C23.8 9.87 23.71 9 22 9C21.3006 9.0708 20.6577 9.41557 20.2117 9.95898C19.7657 10.5024 19.553 11.2002 19.62 11.9C19.6961 12.8561 19.8229 13.8074 20 14.75C20.63 18.13 23.43 22.75 23.51 22.96L23.49 23Z" stroke="#004182" stroke-width="2" stroke-linecap="round" stroke-linejoin="round"/>
</svg>
