<svg width="48" height="48" viewBox="0 0 48 48" fill="none" xmlns="http://www.w3.org/2000/svg">
<path fill-rule="evenodd" clip-rule="evenodd" d="M22.9 14.9C21.9972 13.91 20.9031 13.1134 19.6837 12.5582C18.4643 12.003 17.145 11.7009 15.8056 11.6701C14.4661 11.6392 13.1343 11.8803 11.8907 12.3787C10.647 12.8772 9.51738 13.6226 8.56999 14.57C7.6226 15.5174 6.87716 16.6471 6.37872 17.8907C5.88028 19.1343 5.6392 20.4661 5.67005 21.8056C5.70089 23.145 6.00302 24.4643 6.55818 25.6837C7.11334 26.9031 7.90999 27.9972 8.89999 28.9L24 44L39.1 28.93C40.2147 27.8046 41.0461 26.4305 41.5257 24.9209C42.0053 23.4112 42.1195 21.8092 41.8588 20.2468C41.5981 18.6845 40.9699 17.2063 40.0261 15.9343C39.0822 14.6622 37.8497 13.6325 36.43 12.93C35.0854 12.2608 33.6019 11.9182 32.1 11.93C30.7973 11.9307 29.5078 12.1901 28.3062 12.6931C27.1046 13.196 26.0148 13.9326 25.1 14.86L24 16L22.9 14.9Z" fill="#DF704D"/>
<path d="M22.9 14.88C21.0398 13.0798 18.5474 12.0815 15.9589 12.1C13.3703 12.1184 10.8923 13.152 9.05797 14.9785C7.2236 16.805 6.17935 19.2785 6.14981 21.867C6.12028 24.4554 7.10781 26.9521 8.90003 28.82L24 43.8L39.1 28.8C40.2027 27.6879 41.0247 26.3291 41.4978 24.8361C41.9709 23.3431 42.0815 21.7589 41.8206 20.2147C41.5596 18.6704 40.9346 17.2105 39.9972 15.9559C39.0597 14.7013 37.837 13.688 36.43 13C35.0854 12.3308 33.6019 11.9882 32.1 12V12C30.798 11.9989 29.5087 12.2564 28.3071 12.7577C27.1054 13.259 26.0153 13.994 25.1 14.92L24 16L22.9 14.88Z" stroke="#77280C" stroke-width="2" stroke-linecap="round" stroke-linejoin="round"/>
</svg>
