<svg width="48" height="48" viewBox="0 0 48 48" fill="none" xmlns="http://www.w3.org/2000/svg">
<path d="M14 32H13.31C12.52 31.71 8.49001 30.17 5.78001 29.41C5.61407 29.3652 5.46537 29.2717 5.35307 29.1416C5.24078 29.0115 5.17005 28.8507 5.15001 28.68C5.03786 28.0643 5.17062 27.4292 5.52001 26.91C5.65512 26.7227 5.83449 26.5717 6.04212 26.4705C6.24975 26.3693 6.4792 26.321 6.71001 26.33C6.94853 26.3292 7.18538 26.3698 7.41001 26.45C7.94787 26.6628 8.45028 26.9562 8.90001 27.32L9.09001 27.47L10.34 28.34C10.8 28.67 11.21 28.95 11.5 29.17L14.42 30.36C14.81 30.54 16.42 31.28 16.42 31.7C16.42 32.12 14.56 32.07 14.17 32.08L14 32Z" fill="#9983B1"/>
<path d="M42.75 44.52C38.7769 44.4254 34.8177 44.0141 30.91 43.29H30.7C27.7395 42.8789 24.8096 42.2709 21.93 41.47C19.37 40.7 16.85 39.7 14.41 38.74L13.32 38.31C11.01 37.41 9.13 36.65 7.42 35.92L6.78 35.65C5.74881 35.2494 4.74644 34.7783 3.78 34.24C2.45 33.46 2.04 32.46 2.59 31.24V31.15C2.75507 30.7685 3.0389 30.4505 3.39926 30.2433C3.75962 30.0361 4.17724 29.9507 4.59 30H4.7C4.8932 29.99 5.0868 29.99 5.28 30C7.4 30.23 13.55 32.57 14.76 33L18.76 33.14H18.86L27.86 33.45C27.16 32.81 25.41 31.7 21.11 30.59C20.29 30.38 19.55 30.14 19.38 29.59C19.2427 29.1371 19.2436 28.6535 19.3825 28.201C19.5215 27.7486 19.7922 27.3478 20.16 27.05C20.7167 26.727 21.3583 26.5806 22 26.63C22.768 26.6298 23.5333 26.7204 24.28 26.9C24.74 27.02 25.11 27.14 25.47 27.25C26.4033 27.5713 27.3691 27.7893 28.35 27.9C29.926 28.1465 31.4806 28.5142 33 29C38 30.36 39 32.87 39.59 34.38C39.4 33.76 39.59 34.22 39.69 33.99L39.83 33.79H40.6C41.46 33.79 43.1 33.7 43.11 33.7C43.302 33.6935 43.4906 33.7522 43.645 33.8666C43.7993 33.981 43.9104 34.1444 43.96 34.33C45.67 40.56 43.32 44.02 43.22 44.16C43.1706 44.2481 43.1016 44.3236 43.0184 44.3808C42.9352 44.438 42.8399 44.4754 42.74 44.49L42.75 44.52Z" fill="#BBA9D1"/>
<path fill-rule="evenodd" clip-rule="evenodd" d="M14.63 11.35C14.1707 10.8709 13.6206 10.488 13.0117 10.2237C12.4029 9.95946 11.7475 9.81903 11.0839 9.81066C10.4202 9.80228 9.76151 9.92612 9.1462 10.175C8.53089 10.4238 7.97128 10.7926 7.50001 11.26L7.41001 11.35C6.4487 12.3297 5.91016 13.6475 5.91016 15.02C5.91016 16.3926 6.4487 17.7103 7.41001 18.69L15.2 26.59L23 18.69C23.9613 17.7103 24.4999 16.3926 24.4999 15.02C24.4999 13.6475 23.9613 12.3297 23 11.35C22.5303 10.8676 21.9691 10.4839 21.3492 10.2211C20.7293 9.95841 20.0633 9.82204 19.39 9.82C18.7179 9.81999 18.0527 9.95547 17.4342 10.2184C16.8156 10.4812 16.2564 10.8661 15.79 11.35L15.22 11.93L14.63 11.35Z" fill="#DF704D"/>
<path d="M43.65 34.32C44.7561 35.7405 45.2847 37.5263 45.13 39.32C44.8679 41.2586 44.0793 43.0882 42.85 44.61C42.44 45.01 27.66 43.13 24.2 42.45C20.74 41.77 4.05001 34.43 3.41001 34C2.77001 33.57 2.71001 30.88 4.54001 30.31C6.37001 29.74 10.4 32.46 14.07 33.06C18.2738 33.6289 22.5082 33.9428 26.75 34C29.23 34 24.07 31.84 22.85 31.36C21.63 30.88 19.65 30.49 19.24 29.2C18.83 27.91 20.16 26.96 21.24 26.96C23.2478 27.2556 25.221 27.7514 27.13 28.44C29.821 28.3579 32.5 28.8311 35 29.83C37.0516 30.7078 38.7122 32.3044 39.67 34.32C40 35 43.29 34 43.65 34.32Z" stroke="#493D57" stroke-width="2"/>
<path d="M5.46998 30.17C4.53998 28.17 5.68998 27 7.04998 27C8.40998 27 9.44998 28.48 11.42 29.83C13.6469 31.2405 15.9467 32.5323 18.31 33.7" stroke="#493D57" stroke-width="2"/>
<path d="M14.36 10.63C13.3248 9.61325 11.9286 9.04857 10.4776 9.05982C9.02663 9.07107 7.63934 9.65732 6.62001 10.69C5.59318 11.7296 5.01077 13.1277 4.99584 14.5888C4.98091 16.0499 5.53464 17.4596 6.54001 18.52L15 27L23.43 18.51C24.0481 17.8768 24.5079 17.1066 24.772 16.262C25.0362 15.4175 25.0971 14.5225 24.95 13.65C24.8103 12.7804 24.4652 11.9567 23.9435 11.2471C23.4218 10.5376 22.7384 9.96265 21.95 9.57C21.189 9.18154 20.3443 8.98581 19.49 9C18.7664 9.00522 18.0509 9.15372 17.385 9.43692C16.719 9.72011 16.1158 10.1324 15.61 10.65L14.97 11.26L14.36 10.63Z" stroke="#77280C" stroke-width="2" stroke-linecap="round" stroke-linejoin="round"/>
</svg>
